<svg width="28" height="28" viewBox="0 0 28 28" fill="none" xmlns="http://www.w3.org/2000/svg">
<path fill-rule="evenodd" clip-rule="evenodd" d="M4.78314 2.80005C3.55478 2.80005 2.7998 3.8933 2.7998 4.92338V17.4767C2.7998 18.5068 3.55478 19.6001 4.78314 19.6001H8.0498V17.5001H4.90116C4.90032 17.4931 4.8998 17.4853 4.8998 17.4767V4.92338C4.8998 4.91478 4.90032 4.90701 4.90116 4.90005H16.7985C16.7993 4.90701 16.7998 4.91478 16.7998 4.92338V7.35005H18.8998V4.92338C18.8998 3.8933 18.1448 2.80005 16.9165 2.80005H4.78314ZM11.7831 9.10005C10.6401 9.10005 9.7998 10.0578 9.7998 11.13V23.87C9.7998 24.9423 10.6401 25.9 11.7831 25.9H23.9165C25.0595 25.9 25.8998 24.9423 25.8998 23.87V11.13C25.8998 10.0578 25.0595 9.10005 23.9165 9.10005H11.7831ZM11.8998 23.8V11.2H23.7998V23.8H11.8998ZM21.6998 15.05C21.6998 15.6299 21.2297 16.1 20.6498 16.1H15.0498C14.4699 16.1 13.9998 15.6299 13.9998 15.05C13.9998 14.4701 14.4699 14 15.0498 14H20.6498C21.2297 14 21.6998 14.4701 21.6998 15.05ZM20.6498 21C21.2297 21 21.6998 20.5299 21.6998 19.95C21.6998 19.3701 21.2297 18.9 20.6498 18.9H15.0498C14.4699 18.9 13.9998 19.3701 13.9998 19.95C13.9998 20.5299 14.4699 21 15.0498 21H20.6498Z" fill="#8D9299"/>
</svg>
