<svg width="24" height="24" viewBox="0 0 24 24" fill="none" xmlns="http://www.w3.org/2000/svg">
<path fill-rule="evenodd" clip-rule="evenodd" d="M3.30005 6.0001C3.30005 5.50304 3.70299 5.1001 4.20005 5.1001H19.8C20.2971 5.1001 20.7001 5.50304 20.7001 6.0001C20.7001 6.49715 20.2971 6.9001 19.8 6.9001L4.20005 6.9001C3.70299 6.9001 3.30005 6.49716 3.30005 6.0001ZM3.30005 12.0001C3.30005 11.503 3.70299 11.1001 4.20005 11.1001L16.2 11.1001C16.6971 11.1001 17.1 11.503 17.1 12.0001C17.1 12.4972 16.6971 12.9001 16.2 12.9001L4.20005 12.9001C3.70299 12.9001 3.30005 12.4972 3.30005 12.0001ZM4.20005 17.1001C3.70299 17.1001 3.30005 17.503 3.30005 18.0001C3.30005 18.4972 3.70299 18.9001 4.20005 18.9001L19.8 18.9001C20.2971 18.9001 20.7001 18.4972 20.7001 18.0001C20.7001 17.503 20.2971 17.1001 19.8 17.1001L4.20005 17.1001Z" fill="#47494D"/>
</svg>
