<svg width="40" height="40" viewBox="0 0 40 40" fill="none" xmlns="http://www.w3.org/2000/svg">
<path d="M11.0607 8.93934C10.4749 8.35355 9.52513 8.35355 8.93934 8.93934C8.35355 9.52513 8.35355 10.4749 8.93934 11.0607L17.8787 20L8.93934 28.9393C8.35355 29.5251 8.35355 30.4749 8.93934 31.0607C9.52513 31.6464 10.4749 31.6464 11.0607 31.0607L20 22.1213L28.7383 30.8596C29.3241 31.4454 30.2739 31.4454 30.8596 30.8596C31.4454 30.2739 31.4454 29.3241 30.8596 28.7383L22.1213 20L30.8596 11.2617C31.4454 10.6759 31.4454 9.72614 30.8596 9.14035C30.2739 8.55456 29.3241 8.55457 28.7383 9.14035L20 17.8787L11.0607 8.93934Z" fill="white"/>
</svg>
