<svg width="24" height="24" viewBox="0 0 24 24" fill="none" xmlns="http://www.w3.org/2000/svg">
<path d="M14.1 6.0001C14.1 5.50304 13.6971 5.1001 13.2 5.1001H2.4C1.90294 5.1001 1.5 5.50304 1.5 6.0001C1.5 6.49715 1.90294 6.9001 2.4 6.9001L13.2 6.9001C13.6971 6.9001 14.1 6.49715 14.1 6.0001Z" fill="#8D9299"/>
<path d="M16.7636 9.03649C16.4121 8.68502 16.4121 8.11517 16.7636 7.7637C17.1151 7.41223 17.6849 7.41223 18.0364 7.7637L21.6364 11.3637C21.9879 11.7152 21.9879 12.285 21.6364 12.6365L18.0364 16.2365C17.6849 16.588 17.1151 16.588 16.7636 16.2365C16.4121 15.885 16.4121 15.3152 16.7636 14.9637L19.7272 12.0001L16.7636 9.03649Z" fill="#8D9299"/>
<path d="M13.2 11.1001C13.6971 11.1001 14.1 11.503 14.1 12.0001C14.1 12.4972 13.6971 12.9001 13.2 12.9001L4.8 12.9001C4.30294 12.9001 3.9 12.4972 3.9 12.0001C3.9 11.503 4.30294 11.1001 4.8 11.1001L13.2 11.1001Z" fill="#8D9299"/>
<path d="M13.2 17.1001C13.6971 17.1001 14.1 17.503 14.1 18.0001C14.1 18.4972 13.6971 18.9001 13.2 18.9001L2.4 18.9001C1.90294 18.9001 1.5 18.4972 1.5 18.0001C1.5 17.503 1.90294 17.1001 2.4 17.1001L13.2 17.1001Z" fill="#8D9299"/>
</svg>
