<svg width="24" height="24" viewBox="0 0 24 24" fill="none" xmlns="http://www.w3.org/2000/svg">
<path fill-rule="evenodd" clip-rule="evenodd" d="M11.4 3.3C6.92649 3.3 3.3 6.92649 3.3 11.4C3.3 15.8735 6.92649 19.5 11.4 19.5C15.8735 19.5 19.5 15.8735 19.5 11.4C19.5 6.92649 15.8735 3.3 11.4 3.3ZM1.5 11.4C1.5 5.93238 5.93238 1.5 11.4 1.5C16.8676 1.5 21.3 5.93238 21.3 11.4C21.3 16.8676 16.8676 21.3 11.4 21.3C5.93238 21.3 1.5 16.8676 1.5 11.4Z" fill="#121314"/>
<path fill-rule="evenodd" clip-rule="evenodd" d="M10.5 6C10.5 5.50294 10.9029 5.1 11.4 5.1C14.8794 5.1 17.7 7.92061 17.7 11.4C17.7 11.8971 17.2971 12.3 16.8 12.3C16.3029 12.3 15.9 11.8971 15.9 11.4C15.9 8.91472 13.8853 6.9 11.4 6.9C10.9029 6.9 10.5 6.49706 10.5 6Z" fill="#121314"/>
<path fill-rule="evenodd" clip-rule="evenodd" d="M17.3636 17.3636C17.7151 17.0121 18.2849 17.0121 18.6364 17.3636L22.2364 20.9636C22.5879 21.3151 22.5879 21.8849 22.2364 22.2364C21.8849 22.5879 21.3151 22.5879 20.9636 22.2364L17.3636 18.6364C17.0121 18.2849 17.0121 17.7151 17.3636 17.3636Z" fill="#121314"/>
</svg>
