<svg width="28" height="28" viewBox="0 0 28 28" fill="none" xmlns="http://www.w3.org/2000/svg">
<path fill-rule="evenodd" clip-rule="evenodd" d="M1.75 14C1.75 13.4201 2.2201 12.95 2.8 12.95L25.2 12.95C25.7799 12.95 26.25 13.4201 26.25 14C26.25 14.5799 25.7799 15.05 25.2 15.05L2.8 15.05C2.2201 15.05 1.75 14.5799 1.75 14Z" fill="#121314"/>
<path fill-rule="evenodd" clip-rule="evenodd" d="M1.75 7C1.75 6.4201 2.2201 5.95 2.8 5.95L25.2 5.95C25.7799 5.95 26.25 6.4201 26.25 7C26.25 7.5799 25.7799 8.05 25.2 8.05L2.8 8.05C2.2201 8.05 1.75 7.5799 1.75 7Z" fill="#121314"/>
<path fill-rule="evenodd" clip-rule="evenodd" d="M1.75 21C1.75 20.4201 2.2201 19.95 2.8 19.95H14C14.5799 19.95 15.05 20.4201 15.05 21C15.05 21.5799 14.5799 22.05 14 22.05H2.8C2.2201 22.05 1.75 21.5799 1.75 21Z" fill="#121314"/>
<path fill-rule="evenodd" clip-rule="evenodd" d="M16.7905 18.126C17.218 17.7341 17.8822 17.763 18.274 18.1905L21.35 21.5461L24.426 18.1905C24.8178 17.763 25.482 17.7341 25.9095 18.126C26.337 18.5178 26.3659 19.182 25.974 19.6095L22.124 23.8095C21.9251 24.0265 21.6443 24.15 21.35 24.15C21.0557 24.15 20.7749 24.0265 20.576 23.8095L16.726 19.6095C16.3341 19.182 16.363 18.5178 16.7905 18.126Z" fill="#121314"/>
</svg>
